<?xml version="1.0" encoding="UTF-8"?>
<svg width="225px" height="45px" viewBox="0 0 225 45" version="1.1" xmlns="http://www.w3.org/2000/svg" xmlns:xlink="http://www.w3.org/1999/xlink">
    <!-- Generator: Sketch 50.2 (55047) - http://www.bohemiancoding.com/sketch -->
    <title>brand</title>
    <desc>Created with Sketch.</desc>
    <defs></defs>
    <g id="Page-1" stroke="none" stroke-width="1" fill="none" fill-rule="evenodd">
        <g id="brand" fill-rule="nonzero">
            <path d="M82.265625,28.125 L95.625,28.125 L95.625,14.34375 C95.625,6.46875 89.296875,0 75.09375,0 C61.171875,0 54.703125,6.46875 54.703125,14.34375 L54.703125,28.125 L68.0625,28.125 L68.0625,14.34375 C68.0625,9.703125 69.46875,5.765625 75.234375,5.765625 C80.859375,5.765625 82.40625,9.5625 82.40625,14.34375 L82.40625,28.125 L82.265625,28.125 Z M125.296875,11.8125 L113.203125,11.8125 C113.34375,8.296875 115.3125,6.046875 119.25,6.046875 C123.1875,5.90625 125.296875,8.296875 125.296875,11.8125 Z M136.828125,16.59375 C136.828125,15.890625 136.96875,15.1875 136.96875,14.34375 C136.96875,6.46875 131.765625,1.77635684e-15 118.6875,1.77635684e-15 C105.890625,-7.21644966e-16 99.84375,5.90625 99.84375,14.34375 C99.84375,23.203125 105.75,28.6875 118.6875,28.6875 C129.234375,28.6875 136.546875,24.328125 136.828125,18.84375 L124.875,18.84375 C124.875,21.796875 122.34375,22.921875 119.109375,22.921875 C115.171875,22.921875 112.921875,20.109375 112.921875,16.59375 L136.828125,16.59375 Z M168.1875,14.34375 C168.1875,18.984375 166.640625,22.921875 161.015625,22.921875 C155.53125,22.921875 153.84375,19.125 153.84375,14.34375 C153.84375,9.703125 155.25,5.765625 161.015625,5.765625 C166.640625,5.90625 168.1875,9.703125 168.1875,14.34375 Z M181.546875,14.34375 C181.546875,6.46875 175.21875,0 161.015625,0 C146.953125,0 140.484375,6.46875 140.484375,14.34375 C140.484375,22.21875 146.953125,28.6875 161.015625,28.6875 C175.21875,28.6875 181.546875,22.21875 181.546875,14.34375 Z M209.671875,13.78125 L222.046875,0.703125 L207.984375,0.703125 L202.359375,7.171875 L197.15625,0.5625 L181.96875,0.5625 L194.625,13.359375 L180.5625,28.125 L194.484375,28.125 L201.234375,20.25 L208.265625,28.125 L223.171875,28.125 L209.671875,13.78125 Z" id="Shape" fill="#1D1D1B"></path>
            <polygon id="Shape" fill="#98BAD7" points="33.328125 31.21875 33.328125 42.609375 24.328125 42.609375 24.328125 22.921875 45.703125 22.921875 45.703125 31.21875"></polygon>
            <polygon id="Shape" fill="#4D87BA" points="21.234375 20.109375 21.234375 42.609375 12.375 42.609375 12.375 11.671875 45.703125 11.671875 45.703125 20.109375"></polygon>
            <polygon id="Shape" fill="#00569C" points="0 0.28125 0 42.609375 9.28125 42.609375 9.28125 8.859375 45.703125 8.859375 45.703125 0.28125"></polygon>
            <path d="M223.875,39.234375 L220.921875,39.234375 C220.921875,37.96875 221.484375,37.40625 222.46875,37.40625 C223.03125,37.40625 223.453125,37.546875 223.59375,37.96875 C223.875,38.109375 223.875,38.53125 223.875,39.234375 Z M225,39.9375 C225,38.390625 224.859375,37.828125 224.296875,37.265625 C223.875,36.84375 223.3125,36.5625 222.609375,36.5625 C221.765625,36.5625 221.203125,36.84375 220.640625,37.40625 C220.078125,37.96875 219.796875,38.671875 219.796875,39.65625 C219.796875,41.625 220.921875,42.890625 222.609375,42.890625 C223.453125,42.890625 224.15625,42.609375 224.71875,42.1875 L224.296875,41.625 C223.875,42.046875 223.3125,42.1875 222.75,42.1875 C222.046875,42.1875 221.484375,41.90625 221.203125,41.484375 C220.921875,41.203125 220.921875,40.78125 220.921875,40.21875 L220.921875,40.078125 L225,40.078125 L225,39.9375 Z M218.109375,34.875 C218.109375,34.453125 217.828125,34.171875 217.265625,34.171875 C216.84375,34.171875 216.421875,34.453125 216.421875,34.875 C216.421875,35.296875 216.703125,35.578125 217.265625,35.578125 C217.828125,35.578125 218.109375,35.296875 218.109375,34.875 Z M217.828125,42.75 L217.828125,36.5625 L216.84375,36.703125 L216.84375,42.75 L217.828125,42.75 Z M213.328125,38.53125 C213.328125,39.375 212.90625,39.796875 212.203125,39.796875 C211.359375,39.796875 210.9375,39.375 210.9375,38.671875 C210.9375,37.828125 211.359375,37.40625 212.203125,37.40625 C213.046875,37.40625 213.328125,37.6875 213.328125,38.53125 Z M215.71875,37.265625 L215.15625,36.703125 C214.875,36.84375 214.59375,36.984375 214.3125,36.984375 C213.46875,36.984375 213.328125,36.703125 212.34375,36.703125 C210.9375,36.703125 209.953125,37.546875 209.953125,38.671875 C209.953125,39.515625 210.515625,40.21875 211.359375,40.359375 C210.515625,40.640625 210.234375,40.921875 210.234375,41.34375 C210.234375,41.90625 210.65625,42.1875 211.5,42.1875 C211.640625,42.1875 212.203125,42.1875 212.484375,42.1875 C213.1875,42.1875 213.46875,42.1875 213.75,42.46875 C214.03125,42.609375 214.03125,42.890625 214.03125,43.171875 C214.03125,43.875 213.46875,44.15625 212.484375,44.15625 C211.921875,44.15625 211.5,44.015625 211.21875,43.875 C210.9375,43.734375 210.796875,43.453125 210.796875,43.171875 C210.796875,43.03125 210.9375,42.75 210.9375,42.609375 L209.8125,42.75 C209.671875,43.03125 209.671875,43.171875 209.671875,43.453125 C209.671875,44.296875 210.515625,45 212.484375,45 C214.03125,45 215.015625,44.4375 215.015625,43.171875 C215.015625,42.609375 214.875,42.1875 214.3125,41.90625 C213.890625,41.625 213.46875,41.625 212.765625,41.625 L211.78125,41.625 C211.5,41.625 211.21875,41.484375 211.21875,41.34375 C211.21875,41.203125 211.5,40.921875 212.34375,40.640625 C212.765625,40.640625 213.1875,40.5 213.609375,40.359375 C214.171875,40.078125 214.59375,39.375 214.59375,38.671875 C214.59375,38.25 214.453125,37.96875 214.171875,37.6875 C214.3125,37.6875 214.453125,37.828125 214.59375,37.828125 C215.015625,37.546875 215.296875,37.546875 215.71875,37.265625 Z M207.28125,39.9375 C207.28125,40.5 207.28125,40.921875 207.140625,41.203125 C206.859375,41.765625 206.4375,42.046875 205.734375,42.046875 C205.171875,42.046875 204.609375,41.765625 204.46875,41.484375 C204.1875,41.0625 204.046875,40.359375 204.046875,39.515625 C204.046875,38.8125 204.1875,38.390625 204.328125,37.96875 C204.609375,37.546875 205.03125,37.265625 205.59375,37.265625 C206.15625,37.265625 206.71875,37.546875 207,37.96875 C207.140625,38.53125 207.28125,39.09375 207.28125,39.9375 Z M208.40625,39.796875 C208.40625,38.8125 208.265625,38.109375 207.84375,37.546875 C207.421875,36.984375 206.71875,36.5625 205.59375,36.5625 C203.90625,36.5625 202.78125,37.6875 202.78125,39.65625 C202.78125,41.625 203.765625,42.890625 205.59375,42.890625 C207.28125,42.890625 208.40625,41.765625 208.40625,39.796875 Z M201.65625,42.75 L201.515625,42.1875 C201.515625,42.1875 201.375,42.1875 201.375,42.1875 C201.09375,42.1875 200.953125,42.046875 200.953125,41.625 L200.953125,35.4375 C200.953125,34.453125 200.8125,34.03125 200.8125,34.03125 L199.828125,34.171875 C199.828125,34.171875 199.96875,34.59375 199.96875,35.4375 L199.96875,41.765625 C199.96875,42.1875 200.109375,42.46875 200.25,42.609375 C200.390625,42.75 200.671875,42.890625 200.953125,42.890625 C201.234375,42.890625 201.375,42.75 201.65625,42.75 Z M196.875,39.9375 C196.875,40.5 196.875,40.921875 196.734375,41.203125 C196.453125,41.765625 196.03125,42.046875 195.328125,42.046875 C194.765625,42.046875 194.203125,41.765625 194.0625,41.484375 C193.78125,41.0625 193.640625,40.359375 193.640625,39.515625 C193.640625,38.8125 193.78125,38.390625 193.921875,37.96875 C194.203125,37.546875 194.625,37.265625 195.1875,37.265625 C195.75,37.265625 196.3125,37.546875 196.59375,37.96875 C196.875,38.53125 196.875,39.09375 196.875,39.9375 Z M198.140625,39.796875 C198.140625,38.8125 198,38.109375 197.578125,37.546875 C197.15625,36.984375 196.453125,36.5625 195.328125,36.5625 C193.640625,36.5625 192.515625,37.6875 192.515625,39.65625 C192.515625,41.625 193.5,42.890625 195.328125,42.890625 C196.875,42.890625 198.140625,41.765625 198.140625,39.796875 Z M190.6875,42.75 L190.6875,38.25 C190.6875,37.96875 190.6875,37.828125 190.546875,37.546875 C190.265625,36.984375 189.703125,36.703125 189,36.703125 C188.296875,36.703125 187.59375,36.984375 186.890625,37.6875 C186.890625,37.125 186.609375,36.703125 186.609375,36.703125 L185.625,36.984375 C185.625,36.984375 185.90625,37.40625 185.90625,38.25 L185.90625,42.890625 L186.890625,42.890625 L186.890625,38.390625 C187.3125,37.96875 188.15625,37.546875 188.71875,37.546875 C189,37.546875 189.28125,37.6875 189.421875,37.828125 C189.5625,37.96875 189.703125,38.25 189.703125,38.8125 L189.703125,42.890625 L190.6875,42.890625 L190.6875,42.75 Z M183.515625,42.75 L183.515625,38.390625 C183.515625,37.96875 183.515625,37.828125 183.375,37.546875 C183.234375,36.984375 182.53125,36.5625 181.6875,36.5625 C180.84375,36.5625 180.140625,36.984375 179.578125,37.546875 C179.578125,37.546875 179.578125,37.125 179.578125,36.703125 L179.578125,35.296875 C179.578125,34.3125 179.4375,33.890625 179.4375,33.890625 L178.453125,34.03125 C178.453125,34.03125 178.59375,34.453125 178.59375,35.296875 L178.59375,42.75 L179.578125,42.75 L179.578125,38.53125 C180.140625,37.828125 180.84375,37.546875 181.40625,37.546875 C181.6875,37.546875 181.96875,37.6875 182.109375,37.828125 C182.25,37.96875 182.390625,38.25 182.390625,38.671875 L182.390625,42.75 L183.515625,42.75 Z M177.328125,42.046875 L176.765625,41.484375 C176.34375,41.90625 175.921875,42.1875 175.359375,42.1875 C174.375,42.1875 173.8125,41.484375 173.8125,40.078125 C173.8125,39.234375 173.953125,38.53125 174.234375,38.109375 C174.515625,37.6875 174.9375,37.40625 175.5,37.40625 C176.0625,37.40625 176.34375,37.546875 176.765625,37.828125 L177.328125,37.125 C176.90625,36.703125 176.34375,36.421875 175.5,36.421875 C174.796875,36.421875 174.234375,36.703125 173.8125,37.125 C173.25,37.6875 172.828125,38.390625 172.828125,39.65625 C172.828125,40.5 172.96875,41.203125 173.390625,41.765625 C173.8125,42.328125 174.515625,42.609375 175.5,42.609375 C176.0625,42.890625 176.625,42.609375 177.328125,42.046875 Z M170.15625,39.234375 L167.203125,39.234375 C167.203125,37.96875 167.765625,37.40625 168.75,37.40625 C169.3125,37.40625 169.734375,37.546875 169.875,37.96875 C170.015625,38.109375 170.15625,38.53125 170.15625,39.234375 Z M171.140625,39.9375 C171.140625,38.390625 171,37.828125 170.4375,37.265625 C170.015625,36.84375 169.453125,36.5625 168.75,36.5625 C167.90625,36.5625 167.34375,36.84375 166.78125,37.40625 C166.21875,37.96875 165.9375,38.671875 165.9375,39.65625 C165.9375,41.625 167.0625,42.890625 168.75,42.890625 C169.59375,42.890625 170.296875,42.609375 171,42.1875 L170.578125,41.625 C170.15625,42.046875 169.59375,42.1875 169.03125,42.1875 C168.328125,42.1875 167.765625,41.90625 167.484375,41.484375 C167.203125,41.203125 167.203125,40.78125 167.203125,40.21875 L167.203125,40.078125 L171.140625,40.078125 L171.140625,39.9375 Z M165.09375,36.703125 L163.40625,36.703125 C163.40625,35.859375 163.546875,35.015625 163.546875,35.015625 L162.421875,35.296875 C162.421875,35.296875 162.28125,36.28125 162.28125,36.84375 L161.4375,36.84375 L161.4375,37.546875 L162.28125,37.546875 L162.28125,41.625 C162.28125,42.1875 162.421875,42.609375 162.84375,42.75 C163.125,42.890625 163.40625,42.890625 163.6875,42.890625 C164.109375,42.890625 164.53125,42.75 164.8125,42.609375 L164.671875,42.046875 C164.53125,42.1875 164.390625,42.1875 163.96875,42.1875 C163.265625,42.1875 163.125,41.90625 163.125,41.34375 L163.125,37.40625 L164.53125,37.40625 L165.09375,36.703125 Z M160.59375,40.921875 C160.59375,40.078125 160.03125,39.515625 158.90625,39.234375 L158.0625,39.09375 C157.359375,38.953125 157.078125,38.671875 157.078125,38.25 C157.078125,37.6875 157.5,37.265625 158.34375,37.265625 C158.90625,37.265625 159.328125,37.40625 160.03125,37.6875 L160.453125,36.984375 C159.890625,36.703125 159.1875,36.5625 158.484375,36.5625 C157.078125,36.5625 156.234375,37.265625 156.234375,38.390625 C156.234375,39.234375 156.796875,39.796875 157.921875,40.078125 L158.765625,40.21875 C159.46875,40.359375 159.890625,40.640625 159.890625,41.203125 C159.890625,41.90625 159.328125,42.1875 158.625,42.1875 C157.921875,42.1875 157.21875,42.046875 156.515625,41.625 L156.09375,42.328125 C156.796875,42.75 157.640625,42.890625 158.484375,42.890625 C159.609375,42.890625 160.59375,42.046875 160.59375,40.921875 Z M154.125,42.75 L154.125,38.25 C154.125,37.96875 154.125,37.828125 153.984375,37.546875 C153.703125,36.984375 153.140625,36.703125 152.4375,36.703125 C151.734375,36.703125 151.03125,36.984375 150.328125,37.6875 C150.328125,37.125 150.046875,36.703125 150.046875,36.703125 L149.0625,36.984375 C149.0625,36.984375 149.34375,37.40625 149.34375,38.25 L149.34375,42.890625 L150.328125,42.890625 L150.328125,38.390625 C150.75,37.96875 151.59375,37.546875 152.15625,37.546875 C152.4375,37.546875 152.71875,37.6875 152.859375,37.828125 C153,37.96875 153.140625,38.25 153.140625,38.8125 L153.140625,42.890625 L154.125,42.890625 L154.125,42.75 Z M146.390625,39.9375 C146.390625,40.5 146.390625,40.921875 146.25,41.203125 C145.96875,41.765625 145.546875,42.046875 144.84375,42.046875 C144.28125,42.046875 143.71875,41.765625 143.578125,41.484375 C143.296875,41.0625 143.15625,40.359375 143.15625,39.515625 C143.15625,38.8125 143.296875,38.390625 143.4375,37.96875 C143.71875,37.546875 144.140625,37.265625 144.703125,37.265625 C145.265625,37.265625 145.828125,37.546875 146.109375,37.96875 C146.25,38.53125 146.390625,39.09375 146.390625,39.9375 Z M147.515625,39.796875 C147.515625,38.8125 147.375,38.109375 146.953125,37.546875 C146.53125,36.984375 145.828125,36.5625 144.703125,36.5625 C143.015625,36.5625 141.890625,37.6875 141.890625,39.65625 C141.890625,41.625 142.875,42.890625 144.703125,42.890625 C146.390625,42.890625 147.515625,41.765625 147.515625,39.796875 Z M140.34375,34.875 C140.34375,34.453125 140.0625,34.171875 139.5,34.171875 C139.078125,34.171875 138.65625,34.453125 138.65625,34.875 C138.65625,35.296875 138.9375,35.578125 139.5,35.578125 C140.0625,35.578125 140.34375,35.296875 140.34375,34.875 Z M140.0625,42.75 L140.0625,36.5625 L139.078125,36.703125 L139.078125,42.75 L140.0625,42.75 Z M137.671875,36.703125 L135.984375,36.703125 C135.984375,35.859375 136.125,35.015625 136.125,35.015625 L135.140625,35.15625 C135.140625,35.15625 135,36.140625 135,36.703125 L134.15625,36.703125 L134.15625,37.40625 L135,37.40625 L135,41.484375 C135,42.046875 135.140625,42.46875 135.5625,42.609375 C135.84375,42.75 136.125,42.75 136.40625,42.75 C136.828125,42.75 137.25,42.609375 137.53125,42.46875 L137.390625,41.90625 C137.25,42.1875 137.109375,42.1875 136.828125,42.1875 C136.125,42.1875 135.984375,41.90625 135.984375,41.34375 L135.984375,37.40625 L137.390625,37.40625 L137.671875,36.703125 Z M131.625,39.65625 L131.625,41.203125 C131.34375,41.765625 130.78125,42.1875 130.078125,42.1875 C129.375,42.1875 128.953125,41.765625 128.953125,41.0625 C128.953125,40.078125 129.515625,39.65625 131.203125,39.65625 C131.34375,39.65625 131.484375,39.65625 131.625,39.65625 Z M133.171875,42.328125 C132.75,42.046875 132.609375,41.765625 132.609375,40.921875 L132.609375,38.953125 C132.609375,38.390625 132.609375,37.96875 132.46875,37.6875 C132.328125,36.84375 131.625,36.5625 130.78125,36.5625 C129.796875,36.5625 128.953125,36.84375 128.109375,37.40625 L128.671875,38.109375 C129.09375,37.828125 130.078125,37.40625 130.78125,37.40625 C131.203125,37.40625 131.484375,37.546875 131.625,37.6875 C131.765625,37.828125 131.765625,38.109375 131.765625,38.671875 L131.765625,39.09375 C131.765625,39.09375 131.625,39.09375 131.34375,39.09375 C129.234375,39.09375 127.96875,39.9375 127.96875,41.203125 C127.96875,42.046875 128.390625,42.890625 130.078125,42.890625 C130.78125,42.890625 131.34375,42.609375 131.90625,42.046875 C132.046875,42.46875 132.328125,42.75 132.75,42.890625 L133.171875,42.328125 Z M126,42.75 L126,38.25 C126,37.265625 125.296875,36.5625 124.3125,36.5625 C123.609375,36.5625 122.90625,36.984375 122.203125,37.546875 C121.921875,36.84375 121.359375,36.5625 120.65625,36.5625 C119.953125,36.5625 119.25,36.984375 118.828125,37.40625 C118.828125,36.984375 118.546875,36.5625 118.546875,36.5625 L117.5625,36.84375 C117.5625,36.84375 117.84375,37.265625 117.84375,38.109375 L117.84375,42.75 L118.828125,42.75 L118.828125,38.25 C119.53125,37.6875 119.953125,37.40625 120.515625,37.40625 C120.796875,37.40625 121.078125,37.546875 121.21875,37.6875 C121.359375,37.828125 121.359375,38.109375 121.359375,38.390625 L121.359375,42.609375 L122.34375,42.609375 L122.34375,38.25 C123.046875,37.6875 123.46875,37.265625 124.03125,37.265625 C124.59375,37.265625 124.875,37.546875 124.875,38.109375 L124.875,42.609375 L126,42.609375 L126,42.75 Z M117,36.5625 C117,36.5625 116.859375,36.5625 116.71875,36.5625 C116.015625,36.5625 115.3125,36.984375 114.890625,37.546875 C114.890625,36.984375 114.75,36.5625 114.75,36.5625 L113.765625,36.84375 C113.765625,36.84375 114.046875,37.265625 114.046875,38.109375 L114.046875,42.75 L115.03125,42.75 L115.03125,38.953125 C115.03125,38.390625 115.171875,38.25 115.453125,37.96875 C115.734375,37.6875 116.15625,37.546875 116.578125,37.546875 C116.71875,37.546875 116.859375,37.546875 116.859375,37.546875 L117,36.5625 Z M110.8125,39.9375 C110.8125,40.5 110.8125,40.921875 110.671875,41.203125 C110.390625,41.765625 109.96875,42.046875 109.265625,42.046875 C108.703125,42.046875 108.140625,41.765625 108,41.484375 C107.71875,41.0625 107.578125,40.359375 107.578125,39.515625 C107.578125,38.8125 107.71875,38.390625 107.859375,37.96875 C108.140625,37.546875 108.5625,37.265625 109.125,37.265625 C109.6875,37.265625 110.25,37.546875 110.53125,37.96875 C110.8125,38.53125 110.8125,39.09375 110.8125,39.9375 Z M112.078125,39.796875 C112.078125,38.8125 111.9375,38.109375 111.515625,37.546875 C111.09375,36.984375 110.390625,36.5625 109.265625,36.5625 C107.578125,36.5625 106.453125,37.6875 106.453125,39.65625 C106.453125,41.625 107.4375,42.890625 109.265625,42.890625 C110.8125,42.890625 112.078125,41.765625 112.078125,39.796875 Z M106.453125,34.3125 C106.03125,34.03125 105.609375,34.03125 105.046875,34.03125 C104.625,34.03125 104.203125,34.171875 103.921875,34.3125 C103.640625,34.453125 103.21875,34.875 103.21875,35.71875 L103.21875,36.703125 L102.65625,36.703125 L102.65625,37.40625 L103.21875,37.40625 L103.21875,42.75 L104.34375,42.75 L104.34375,37.40625 L105.890625,37.40625 L106.171875,36.703125 L104.34375,36.703125 L104.34375,35.71875 C104.34375,35.015625 104.625,34.59375 105.1875,34.59375 C105.46875,34.59375 105.890625,34.734375 106.171875,34.875 L106.453125,34.3125 Z M100.828125,42.75 L100.828125,38.25 C100.828125,37.96875 100.828125,37.828125 100.6875,37.546875 C100.40625,36.984375 99.84375,36.5625 99.140625,36.5625 C98.4375,36.5625 97.734375,36.84375 97.03125,37.546875 C97.03125,36.984375 96.75,36.5625 96.75,36.5625 L95.765625,36.84375 C95.765625,36.84375 96.046875,37.265625 96.046875,38.109375 L96.046875,42.75 L97.03125,42.75 L97.03125,38.25 C97.453125,37.828125 98.296875,37.40625 98.859375,37.40625 C99.140625,37.40625 99.421875,37.546875 99.5625,37.6875 C99.703125,37.828125 99.84375,38.109375 99.84375,38.671875 L99.84375,42.75 L100.828125,42.75 Z M93.796875,34.453125 L92.8125,34.453125 L92.8125,42.75 L93.796875,42.75 L93.796875,34.453125 Z M88.734375,36.5625 C88.734375,36.5625 88.59375,36.5625 88.453125,36.5625 C87.75,36.5625 87.046875,36.984375 86.625,37.546875 C86.625,36.984375 86.484375,36.5625 86.484375,36.5625 L85.5,36.84375 C85.5,36.84375 85.78125,37.265625 85.78125,38.109375 L85.78125,42.75 L86.765625,42.75 L86.765625,38.953125 C86.765625,38.390625 86.90625,38.25 87.1875,37.96875 C87.46875,37.6875 87.890625,37.546875 88.3125,37.546875 C88.453125,37.546875 88.59375,37.546875 88.59375,37.546875 L88.734375,36.5625 Z M80.15625,35.296875 C80.15625,35.015625 79.875,34.734375 79.453125,34.734375 C79.03125,34.734375 78.75,35.015625 78.75,35.296875 C78.75,35.578125 79.03125,36 79.453125,36 C79.875,35.859375 80.15625,35.578125 80.15625,35.296875 Z M82.828125,35.296875 C82.828125,35.015625 82.546875,34.734375 82.125,34.734375 C81.703125,34.734375 81.421875,35.015625 81.421875,35.296875 C81.421875,35.578125 81.703125,36 82.125,36 C82.546875,35.859375 82.828125,35.578125 82.828125,35.296875 Z M83.671875,42.328125 C83.390625,42.046875 83.25,41.765625 83.25,40.921875 L83.25,36.5625 L82.265625,36.703125 L82.265625,40.921875 C81.984375,41.625 81.28125,42.046875 80.578125,42.046875 C80.296875,42.046875 80.015625,41.90625 79.734375,41.90625 C79.453125,41.765625 79.3125,41.484375 79.3125,40.921875 L79.3125,36.5625 L78.328125,36.703125 L78.328125,41.0625 C78.328125,41.34375 78.328125,41.765625 78.46875,41.90625 C78.75,42.46875 79.3125,42.75 80.15625,42.75 C81,42.75 81.703125,42.46875 82.265625,41.765625 C82.40625,42.1875 82.546875,42.46875 82.96875,42.75 L83.671875,42.328125 Z M78.046875,34.3125 C77.625,34.03125 77.203125,34.03125 76.640625,34.03125 C76.21875,34.03125 75.796875,34.171875 75.515625,34.3125 C75.234375,34.453125 74.8125,34.875 74.8125,35.71875 L74.8125,36.703125 L74.25,36.703125 L74.25,37.40625 L74.8125,37.40625 L74.8125,42.75 L75.9375,42.75 L75.9375,37.40625 L77.484375,37.40625 L77.765625,36.703125 L75.9375,36.703125 L75.9375,35.71875 C75.9375,35.015625 76.21875,34.59375 76.78125,34.59375 C77.0625,34.59375 77.484375,34.734375 77.765625,34.875 L78.046875,34.3125 Z M69.46875,42.1875 L69.46875,38.390625 L66.515625,38.390625 L66.65625,39.234375 L68.484375,39.234375 L68.484375,41.765625 C68.0625,42.046875 67.640625,42.046875 67.078125,42.046875 C66.234375,42.046875 65.390625,41.765625 64.96875,41.203125 C64.546875,40.640625 64.40625,39.796875 64.40625,38.671875 C64.40625,37.828125 64.546875,37.125 64.6875,36.5625 C65.109375,35.578125 65.8125,35.15625 66.9375,35.15625 C67.640625,35.15625 68.203125,35.296875 68.90625,35.859375 L69.328125,35.296875 C68.625,34.734375 67.78125,34.453125 66.9375,34.453125 C65.953125,34.453125 65.25,34.734375 64.546875,35.296875 C63.5625,36 63.140625,37.125 63.140625,38.8125 C63.140625,40.21875 63.421875,41.203125 64.265625,42.046875 C64.96875,42.75 65.953125,43.03125 66.9375,43.03125 C67.921875,42.890625 68.90625,42.609375 69.46875,42.1875 Z M60.046875,39.375 L57.234375,39.375 L58.640625,35.296875 L60.046875,39.375 Z M62.296875,42.75 L59.34375,34.453125 L57.9375,34.453125 L54.984375,42.75 L56.109375,42.75 L56.953125,40.21875 L60.328125,40.21875 L61.171875,42.75 L62.296875,42.75 Z" id="Shape" fill="#1D1D1B"></path>
        </g>
    </g>
</svg>